PathFileType   4   (X/Y/Z)
DataRate	CameraRate	NumFrames	NumMarkers	Units	OrigDataRate	OrigDataStartFrame	OrigNumFrames
120.0	120.0	8	37	mm	120.0	29	114
Frame#	Time	midhip	hip_r	hip_l	knee_r	knee_l	ankle_r	ankle_l	midasis	asis_r	asis_l	psis_r	psis_l	epicondLat_r	epicondLat_l	epicondMed_r	epicondMed_l	malleolusLat_r	malleolusLat_l	malleolusMedv_r	malleolusMedv_l	neck	subclavicle_r	subclavicle_l	sternalnotch	xyphoidprocess	thighwand_r	thighwand_l	upperleg1_r	upperleg1_l	upperleg2_r	upperleg2_l	shankwand_r	shankwand_l	lowerleg1_r	lowerleg1_l	toe_r	toe_l
 	 	X1	Y1	Z1	X2	Y2	Z2	X3	Y3	Z3	X4	Y4	Z4	X5	Y5	Z5	X6	Y6	Z6	X7	Y7	Z7	X8	Y8	Z8	X9	Y9	Z9	X10	Y10	Z10	X11	Y11	Z11	X12	Y12	Z12	X13	Y13	Z13	X14	Y14	Z14	X15	Y15	Z15	X16	Y16	Z16	X17	Y17	Z17	X18	Y18	Z18	X19	Y19	Z19	X20	Y20	Z20	X21	Y21	Z21	X22	Y22	Z22	X23	Y23	Z23	X24	Y24	Z24	X25	Y25	Z25	X26	Y26	Z26	X27	Y27	Z27	X28	Y28	Z28	X29	Y29	Z29	X30	Y30	Z30	X31	Y31	Z31	X32	Y32	Z32	X33	Y33	Z33	X34	Y34	Z34	X35	Y35	Z35	X36	Y36	Z36	X37	Y37	Z37

	29	0.35000	255.281	775.254	-282.207	236.340	777.443	-203.040	237.130	778.322	-358.665	435.847	424.429	-184.041	205.463	422.586	-330.565	339.695	89.633	-203.309	140.328	61.037	-306.843	363.692	851.463	-279.793	363.076	850.777	-158.386	364.308	852.149	-401.199	123.913	917.225	-246.569	120.995	919.698	-301.331	437.984	429.474	-112.751	200.847	417.376	-401.726	453.587	423.770	-256.980	198.532	415.627	-245.918	324.515	91.961	-168.005	124.164	61.585	-342.880	357.072	91.722	-236.394	138.384	78.904	-266.131	165.360	1345.885	-289.017	293.910	1282.979	-245.933	295.656	1282.035	-329.783	278.609	1276.493	-300.487	331.931	1204.180	-297.173	502.632	643.766	-117.402	401.159	573.979	-358.479	459.437	642.664	-137.217	354.351	593.729	-367.114	481.642	568.500	-142.964	329.213	526.681	-356.908	451.916	207.085	-155.570	137.826	160.210	-416.449	412.782	220.677	-176.716	141.182	175.553	-370.228	431.980	59.722	-186.243	239.226	45.261	-323.657
	30	0.35833	265.963	773.773	-281.668	247.593	776.149	-202.347	247.283	776.714	-357.975	449.490	424.939	-185.662	210.026	421.995	-329.564	373.963	84.735	-202.713	140.767	61.406	-306.170	374.477	849.878	-280.147	374.718	849.436	-158.567	374.235	850.319	-401.727	134.966	915.926	-245.286	131.697	918.383	-300.040	452.295	429.937	-114.392	205.332	416.789	-400.720	464.349	423.787	-258.561	206.879	412.017	-244.411	358.477	86.408	-167.505	124.522	62.191	-342.166	391.723	87.770	-235.707	139.567	79.067	-265.443	176.131	1344.568	-289.100	304.681	1281.568	-245.980	307.159	1280.573	-329.939	289.749	1275.045	-300.382	343.177	1202.752	-296.904	515.218	643.965	-119.686	408.195	570.869	-357.664	471.595	642.514	-138.571	360.893	591.008	-365.834	494.114	568.498	-144.954	336.378	524.541	-355.889	478.747	209.091	-155.268	139.142	160.748	-415.702	439.570	220.262	-176.441	143.026	175.843	-369.361	467.707	60.126	-185.120	239.394	45.294	-323.288
	31	0.36667	276.789	772.131	-281.095	258.967	774.654	-201.625	257.570	775.020	-357.248	462.817	425.075	-187.297	214.741	421.424	-328.657	408.039	80.607	-202.061	141.316	61.809	-305.631	385.436	848.055	-280.406	386.529	847.768	-158.560	384.342	848.341	-402.251	146.137	914.583	-243.908	142.519	917.047	-298.659	466.273	430.011	-116.051	210.079	416.235	-399.816	476.143	423.792	-261.335	212.139	410.828	-243.347	392.386	81.589	-166.901	124.958	62.847	-341.570	426.669	83.936	-234.730	139.367	79.901	-264.721	187.184	1343.207	-288.873	315.923	1279.739	-246.324	318.855	1279.564	-329.643	300.858	1273.427	-300.265	354.774	1201.459	-297.478	527.560	643.494	-121.987	415.302	567.906	-356.611	484.828	642.067	-140.820	367.995	588.746	-363.967	506.669	568.087	-147.266	342.506	522.592	-354.599	505.126	211.447	-155.202	140.482	161.382	-415.100	466.213	219.796	-176.702	143.817	176.281	-368.930	503.010	61.193	-184.291	239.534	45.346	-323.015
	32	0.37500	287.739	770.346	-280.469	270.456	772.983	-200.865	267.988	773.248	-356.474	475.876	424.880	-188.949	219.621	420.889	-327.875	441.738	77.288	-201.351	141.949	62.270	-305.241	396.558	846.020	-280.565	398.496	845.812	-158.373	394.620	846.229	-402.757	157.437	913.194	-242.449	153.481	915.688	-297.202	479.957	429.726	-117.731	215.073	415.737	-399.044	489.690	422.994	-264.147	215.559	413.304	-241.003	426.068	77.572	-166.186	125.468	63.575	-341.115	460.315	81.796	-234.147	139.435	80.554	-264.129	198.284	1341.789	-288.916	326.012	1277.463	-244.927	330.228	1278.288	-328.885	311.931	1271.707	-300.117	365.401	1199.681	-296.783	539.652	642.371	-124.288	422.518	565.061	-355.409	498.038	641.035	-143.462	376.205	586.565	-362.516	519.398	567.211	-149.574	348.776	520.796	-352.784	530.979	214.147	-155.389	141.894	162.119	-414.659	492.249	220.017	-176.533	144.803	176.913	-368.310	537.742	62.928	-183.752	239.669	45.414	-322.834
	33	0.38333	298.795	768.437	-279.781	282.050	771.161	-200.060	278.531	771.407	-355.649	488.692	424.406	-190.620	224.692	420.397	-327.239	474.872	74.798	-200.572	142.624	62.821	-305.000	407.828	843.808	-280.624	410.601	843.614	-158.018	405.055	844.002	-403.230	168.874	911.757	-240.920	164.598	914.302	-295.676	493.366	429.129	-119.429	220.304	415.309	-398.423	501.576	420.876	-265.661	220.267	415.731	-240.153	459.331	74.410	-165.350	126.037	64.400	-340.814	493.273	80.609	-233.575	140.784	80.883	-263.854	209.385	1340.176	-289.315	337.705	1275.787	-245.684	341.180	1275.672	-328.359	322.998	1269.871	-299.930	376.433	1197.327	-296.335	551.504	640.625	-126.569	429.879	562.293	-354.157	510.345	639.187	-145.749	385.845	585.278	-361.309	531.375	565.532	-151.496	356.374	519.255	-351.424	556.218	217.177	-155.812	143.434	162.961	-414.380	518.047	220.802	-176.392	146.752	177.655	-367.684	571.742	65.317	-183.462	239.819	45.491	-322.730
	34	0.39167	309.941	766.423	-279.029	293.741	769.221	-199.210	289.203	769.511	-354.773	501.269	423.711	-192.301	229.993	419.946	-326.756	507.252	73.133	-199.707	143.302	63.492	-304.899	419.233	841.459	-280.585	422.823	841.229	-157.517	415.642	841.688	-403.652	180.455	910.273	-239.331	175.879	912.882	-294.084	506.500	428.276	-121.139	225.774	414.954	-397.957	510.425	417.466	-266.004	223.501	419.984	-238.059	491.973	72.126	-164.383	126.649	65.348	-340.669	526.912	78.869	-232.278	142.345	81.470	-263.848	220.620	1338.492	-289.680	349.064	1273.760	-245.487	351.545	1273.320	-328.591	334.102	1267.922	-299.693	386.847	1194.946	-296.504	563.137	638.306	-128.809	437.417	559.556	-352.958	521.839	636.386	-147.570	394.924	583.830	-360.126	542.332	562.720	-153.082	362.804	517.764	-349.670	580.752	220.515	-156.427	145.159	163.912	-414.251	543.109	221.401	-177.632	149.037	178.483	-367.530	604.841	68.326	-183.358	240.000	45.568	-322.682
	35	0.40000	321.178	764.333	-278.220	305.525	767.197	-198.323	300.017	767.578	-353.854	513.609	422.859	-193.976	235.575	419.525	-326.419	538.697	72.266	-198.746	143.957	64.310	-304.920	430.766	839.022	-280.446	435.141	838.719	-156.895	426.390	839.324	-403.997	192.185	908.749	-237.685	187.323	911.426	-292.426	519.357	427.231	-122.842	231.496	414.666	-397.637	517.876	414.026	-267.248	226.133	424.502	-234.929	523.786	70.717	-163.285	127.294	66.444	-340.670	559.204	78.376	-231.043	143.026	82.513	-263.904	231.991	1336.741	-289.785	360.053	1271.708	-244.902	362.209	1271.608	-328.910	345.244	1265.870	-299.402	397.444	1193.017	-296.852	574.586	635.487	-130.979	445.168	556.812	-351.906	532.799	632.937	-149.027	402.832	581.356	-358.819	552.875	559.008	-155.004	368.377	516.381	-347.708	604.488	224.125	-157.178	147.112	164.974	-414.252	567.630	222.500	-178.483	151.011	179.454	-367.671	636.867	71.901	-183.366	240.223	45.637	-322.670
	36	0.40833	332.528	762.203	-277.373	317.402	765.127	-197.408	310.999	765.636	-352.905	525.722	421.911	-195.623	241.490	419.123	-326.213	569.040	72.137	-197.692	144.590	65.299	-305.042	442.428	836.553	-280.204	447.536	836.147	-156.178	437.321	836.959	-404.230	204.064	907.196	-235.988	198.927	909.937	-290.703	531.944	426.058	-124.515	237.492	414.438	-397.447	526.509	410.941	-269.932	233.534	423.064	-234.741	554.572	70.134	-162.070	127.974	67.710	-340.796	589.286	79.282	-230.147	143.139	83.826	-263.996	243.286	1334.773	-289.465	371.173	1269.409	-244.675	373.847	1269.553	-328.509	356.469	1263.766	-299.100	408.808	1190.834	-296.542	585.894	632.267	-133.049	453.170	554.037	-351.080	543.237	629.213	-150.679	410.956	579.184	-357.815	563.329	555.248	-157.467	376.463	515.002	-347.138	627.338	227.950	-158.006	149.315	166.160	-414.363	591.222	224.195	-178.604	152.870	180.384	-367.961	667.652	75.956	-183.421	240.488	45.695	-322.677
